@ -0,0 +1 @@
<?xml version="1.0" encoding="UTF-8"?><svg id="Laag_1" xmlns="http://www.w3.org/2000/svg" xmlns:xlink="http://www.w3.org/1999/xlink" viewBox="0 0 915.48 853.2"><defs><style>.cls-1{fill:none;}.cls-2{letter-spacing:0em;}.cls-3{font-family:Fredoka;font-size:79.14px;font-weight:800;}.cls-3,.cls-4,.cls-5{fill:#005976;}.cls-6{fill:#fff;}.cls-7{letter-spacing:0em;}.cls-8{letter-spacing:-.07em;}.cls-9{fill:#0098d8;}.cls-5{font-family: Fredoka-Bold, Fredoka;font-size:18.03px;font-weight:600;}.cls-10{letter-spacing:0em;}.cls-11{letter-spacing:.09em;}.cls-12{letter-spacing:.09em;}.cls-13{letter-spacing:.08em;}.cls-14{letter-spacing:.09em;}.cls-15{letter-spacing:.08em;}.cls-16{letter-spacing:.01em; fill:#005976;}.cls-17{clip-path:url(#clippath);}</style><clipPath id="clippath"><circle class="cls-1" cx="397.36" cy="381.92" r="333.98"/></clipPath></defs><g class="cls-17"><rect class="cls-4" width="833.72" height="828.48"/><rect id="blauw_299" class="cls-9" width="833.72" height="463.46"/><path class="cls-4" d="M588.56,365.28s-.35-2.38.35-3.46c.72-1.07,7.03-7.86,8.1-8.57s2.15-1.31,3.22-1.07c1.07.24,5.08,2.34,5.08,2.34l2.78,36.47-19.53-25.72Z"/><path class="cls-4" d="M239.85,429.29s5.83,5.43,6.71,5.67,1.92-1.12,1.92-1.12l.24-.8-2.48-1.52c-3.86-2.58-5.19-3.43-5.59-3.52-.4-.08-.96.56-.96.56l.16.72Z"/><path class="cls-4" d="M407.01,336.43s3.48-4.78,7.34-7.08c3.85-2.3,7.83-3.42,7.83-3.42l1.62.93-.12,1.37s.93-.44-2.05.93c-2.98,1.37-3.92,1.99-3.92,1.99,0,0-.25.44,3.79,1.12,4.04.68,5.22.68,5.22.68l-.81,1.8s-.88.91-1.93.93c-.99.03-2.23.13-3.99-.26-1.34-.3-1.86-1.14-2.54-1.29-1.4-.32-2.67-.31-3.42.06-.74.37-1.49,1.99-2.24,2.55-.75.56-1.31,1.31-1.99,1.31s-2.8-1.62-2.8-1.62Z"/><path class="cls-4" d="M580.88,371.07c-.18,0-2.16.49-2.52-.19-.37-.68-1.17-1.41-.13-2.34,1.05-.92,1.54-1.72,2.9-1.66,1.35.06,1.84-.06,2.95.37,1.11.43,1.54.37,1.91,1.35.37.99.74,2.28.37,3.77-.37,1.48-.74,1.48-1.23,2.15-.49.68-.8,1.6-.56,1.91.25.3,14.24,15.04,14.24,15.04,0,0,1.67,2.28,1.17,2.78-.49.49-1.17,1.05-2.46.99-1.29-.07-18.37-18.57-18.37-18.57,0,0,.98-.74-.06-.92-1.05-.19-1.24-.06-1.05-.93.18-.86.13-1.04.86-.98.74.06,1.36.37,2.9-.06,1.54-.44,2.1-1.24,1.79-1.61-.31-.37-.74-.92-1.11-1.04-.37-.13-1.6-.06-1.6-.06Z"/><path class="cls-4" d="M365.81,231.43l9.75,9.75s8.64,13.2,11.45,17.21c2.81,4.01,4.62,7.02,5.02,8.43.4,1.41,0,2.41-1.61,4.22-1.6,1.81-4.81,5.22-4.81,5.22l-.8,20.27-5.99-6.59-.26-29.67s1.04-10.31-5.59-14.72c-6.62-4.42-7.04-3.19-7.04-3.19l-2.39,2.59s-.8,3.61-.4,9.83c.4,6.22.6,11.04,1.2,12.64.6,1.61,2.01,4.01,2.01,4.01l.9,22.08,13.79,13.99h-24.48s-.57-13.57-.57-26.01,0-31.95,0-31.95l1.12-5.8,1-3.21,7.7-9.1"/><path class="cls-4" d="M452.25,361.8s28.84,26.07,31.21,27.25c2.37,1.19,8.1,2.97,9.28,2.97h7.9l-5.93,5.33s-9.09-1.18-12.84-3.56c-3.75-2.37-29.63-32-29.63-32Z"/><path class="cls-6" d="M0,463.36v36.04h833.72v-35.86H220.3l-4.49-2.33s-1.25.46-1.48,1.61c-.22,1.15,0,.72,0,.72l-214.33-.18Z"/><path class="cls-6" d="M588.56,365.28s-.35-2.38.35-3.46c.72-1.07,7.03-7.86,8.1-8.57s2.15-1.31,3.22-1.07c1.07.24,5.08,2.34,5.08,2.34l2.78,36.47-19.53-25.72Z"/><path class="cls-6" d="M452.25,361.8s28.84,26.07,31.21,27.25c2.37,1.19,8.1,2.97,9.28,2.97h7.9l-5.93,5.33s-9.09-1.18-12.84-3.56c-3.75-2.37-29.63-32-29.63-32Z"/><path class="cls-6" d="M239.85,429.29s5.83,5.43,6.71,5.67,1.92-1.12,1.92-1.12l.24-.8-2.48-1.52c-3.86-2.58-5.19-3.43-5.59-3.52-.4-.08-.96.56-.96.56l.16.72Z"/><path class="cls-6" d="M365.81,231.43l9.75,9.75s8.64,13.2,11.45,17.21c2.81,4.01,4.62,7.02,5.02,8.43.4,1.41,0,2.41-1.61,4.22-1.6,1.81-4.81,5.22-4.81,5.22l-.8,20.27-5.99-6.59-.26-29.67s1.04-10.31-5.59-14.72c-6.62-4.42-7.04-3.19-7.04-3.19l-2.39,2.59s-.8,3.61-.4,9.83c.4,6.22.6,11.04,1.2,12.64.6,1.61,2.01,4.01,2.01,4.01l.9,22.08,13.79,13.99h-24.48s-.57-13.57-.57-26.01,0-31.95,0-31.95l1.12-5.8,1-3.21,7.7-9.1"/><path class="cls-6" d="M407.01,336.43s3.48-4.78,7.34-7.08c3.85-2.3,7.83-3.42,7.83-3.42l1.62.93-.12,1.37s.93-.44-2.05.93c-2.98,1.37-3.92,1.99-3.92,1.99,0,0-.25.44,3.79,1.12,4.04.68,5.22.68,5.22.68l-.81,1.8s-.88.91-1.93.93c-.99.03-2.23.13-3.99-.26-1.34-.3-1.86-1.14-2.54-1.29-1.4-.32-2.67-.31-3.42.06-.74.37-1.49,1.99-2.24,2.55-.75.56-1.31,1.31-1.99,1.31s-2.8-1.62-2.8-1.62Z"/><path class="cls-6" d="M580.88,371.07c-.18,0-2.16.49-2.52-.19-.37-.68-1.17-1.41-.13-2.34,1.05-.92,1.54-1.72,2.9-1.66,1.35.06,1.84-.06,2.95.37,1.11.43,1.54.37,1.91,1.35.37.99.74,2.28.37,3.77-.37,1.48-.74,1.48-1.23,2.15-.49.68-.8,1.6-.56,1.91.25.3,14.24,15.04,14.24,15.04,0,0,1.67,2.28,1.17,2.78-.49.49-1.17,1.05-2.46.99-1.29-.07-18.37-18.57-18.37-18.57,0,0,.98-.74-.06-.92-1.05-.19-1.24-.06-1.05-.93.18-.86.13-1.04.86-.98.74.06,1.36.37,2.9-.06,1.54-.44,2.1-1.24,1.79-1.61-.31-.37-.74-.92-1.11-1.04-.37-.13-1.6-.06-1.6-.06Z"/><rect class="cls-6" y="503.74" width="833.72" height="159.91"/><rect class="cls-6" y="668.57" width="833.72" height="159.91"/><path class="cls-4" d="M246.4,434.95l-.04.2-.43,3.88c-.65,1.51-2.37,3.45-2.37,3.45l-.65,17.23s-.65,1.29.65,2.8c1.29,1.51,3.23,2.8,3.23,2.8,0,0-.21,4.95-2.8,4.52-2.58-.43-4.95-1.94-5.17-3.01-.21-1.08-.86-2.37-1.08-3.45-.22-1.08-.22-14-.22-14l-1.29-.22s0,1.94-1.29,6.9c-1.29,4.95-2.58,7.97-3.66,10.12-1.08,2.16-3.01,2.8-4.09,2.8s-2.58-1.51-3.02-2.8c-.43-1.29.22-2.58,1.29-4.09,1.07-1.51,3.88-5.38,4.95-8.4,1.08-3.02,1.51-6.9,1.51-6.9h-24.98s-1.29,1.08-1.08,3.23c.22,2.15-.21,3.23.43,5.6.65,2.37.43,2.8-.43,3.88-.86,1.07-2.37,1.72-3.23.64-.86-1.07-.86-1.72-1.08-3.01s-.86-3.44-.86-3.44c0,0-1.94,0-2.15,3.01q-.21,3.01.43,4.52c.65,1.51,2.15,1.51,2.37,3.02.22,1.51.43,5.17-2.15,5.38-2.59.21-5.6-2.37-6.03-5.17-.43-2.8-.86-7.75-.22-9.05,1.02-2.05,2.37-3.66,3.66-4.53,1.29-.86,1.29-4.52,1.29-4.52,0,0-3.32-3.01-3.45-4.74-.21-3.02.07-4.32.65-5.38,1.51-2.8,3.66-3.88,3.66-3.88,0,0-6.68-6.46-6.89-12.27-.26-7.11,2.42-14.3,7.32-18.96,4.52-4.31,10.55-6.25,15.08-6.03,7.56.36,12.92,4.09,13.57,5.17.64,1.08-1.94,5.17-3.45,4.09-3.51-2.51-5.17-4.09-9.26-4.53-3.65-.39-7.97.43-10.98,2.58-2.9,2.07-5.06,5.47-6.03,8.4-1.29,3.88-1.51,5.21-1.51,8.62s1.22,4.63,2.15,6.03c1.29,1.93,4.74,3.44,4.74,3.44,0,0,3.23-.86,5.82-.43,2.58.43,3.88.64,4.74,1.08.86.43,1.07,1.08,4.52,1.29,3.45.21,14.43.21,14.43.21l3.66-1.08,3.11-.65.07-.04,6.55,5.66Z"/><path class="cls-4" d="M240.65,428.01l.33-.61-.43-4.95c.86-3.66,1.29-3.45,2.37-5.6,1.36-2.72,5.38-4.31,5.38-4.31l.22-2.8s.61-1.94,2.37-1.72c1.72.21,2.58,1.51,2.58,1.51.21,1.29-.22,3.01-.22,3.01,0,0,2.37,1.08,3.88,1.94,1.51.86,3.88,3.23,3.88,3.23l3.01.21s2.69.46,2.15,2.59c-.43,1.72-1.94,1.72-1.94,1.72l-2.37.22s-1.72,7.32-7.11,9.05c-2.99.95-6.03.21-6.03.21l-.39,1.1-7.69-4.8Z"/><path class="cls-4" d="M300.48,190.48s7.81,6.58,15.11,9.51c2.44.98,1.22,1.95,1.22,1.95,0,0-18.77-3.66-27.55-8.78-6.19-3.61-8.29-7.31-8.29-7.31,0,0-1.13,13.85,30.47,24.38,2.19.73.24.97.24.97,0,0-17.75.83-29.74-3.17-2.92-.97-3.66-.73-3.66-.73,0,0,5.85,12.19,44.61,11.94,2.69-.02.49,1.22.49,1.22,0,0-12.19,4.63-31.93,2.93h-2.44s14.48,12.34,41.44,5.61c2.93-.73.98.49.98.49,0,0-8.61,7.32-27.3,11.21l5.61,2.19s16.58,5.12,40.71-14.87c0,0,3.98-4.24,8.29-6.82,1.22-.73,4.63,2.19,6.09,3.65,1.46,1.46.97,6.58.97,6.58l9.75,9.75-.24-8.53s.73-2.68,2.19-1.46c1.46,1.22,5.43,5.58,9.12,5.58,4.63,0,6.24-4.61,6.48-7.78.24-3.17.24-4.39.24-4.39l1.54-.63.28-.23.24-.37.17-.54-.09-.69-.31-1.4-.61-1.75v-14.14s-3.17-5.85-11.46-12.92c-8.29-7.07-37.54-17.31-60.21-17.06-22.67.25-29.74.25-29.74.25l7.31,15.36Z"/><path class="cls-4" d="M355.99,249.55v17.65l-16.95,14.83s-1.77,13.95-4.77,25.77c-3,11.83-4.24,15-4.06,16.24.18,1.24.35,4.24.35,4.24,0,0,3.71,4.41,4.94,5.83,1.24,1.41.18,2.65.18,2.65,0,0-.53.53-1.24.17-.71-.35-4.24-3.88-4.24-3.88l-.71,13.95-11.47-9.71,6.18-12.35s1.94-21.89,2.47-27.36c.53-5.47,1.59-16.42,1.77-18.71.18-2.29.18-4.24.18-4.24l27.36-25.07Z"/><path class="cls-4" d="M598.7,389.92l4.17-5.71-14.27-18.83-2.56,3.36s.41.85.41,2.01-.04,1.99-.32,2.36c-.27.37-.74.79-1.16,1.53-.42.74-.69,1.02-.65,1.39.04.37,1.02,1.39,1.02,1.39l12.84,13.49.51-1Z"/><path class="cls-4" d="M579.16,376.67s-.45-.15-9.45,4.02c-9.7,4.5-9.68,4.57-19.99,10.55,0,0-47.65.44-48.31.66-.66.22-4.39,3.52-7.25,6.15-2.85,2.64-6.81,5.71-7.03,7.91-.22,2.2,1.54,6.59,3.51,12.74,1.98,6.15.22,9.22-3.08,16.91-3.3,7.69-10.1,14.28-13.61,18.01-3.51,3.73-2.42,3.51-3.07,5.27-.66,1.75-.44,3.73-3.07,8.57-2.64,4.83-3.73,8.12-5.49,12.3-1.76,4.17-1.1,3.73-.66,5.92.44,2.2,5.93,11.42,5.93,11.42h1.98s-.22-6.59.22-10.32c.44-3.73,1.1-4.61,1.54-8.12.44-3.51,2.86-5.71,6.15-12.3,3.29-6.59,7.25-8.56,7.25-8.56,0,0-.88,7.25-1.54,9-.66,1.76-1.32,6.59-1.76,13.18-.44,6.59-.7,22.15-.7,22.15h13.4s-.18-3.93-1.28-4.81c-1.1-.88-5.05-4.39-5.27-5.27-.22-.88.88-9.44,1.1-11.86.22-2.42,1.32-8.35,1.32-10.32s1.1-1.54,3.08-3.74c1.98-2.19,8.56-9.44,12.74-14.71,4.17-5.27,6.37-11.64,9-14.72,2.64-3.07,14.94-6.81,20.86-7.68,5.93-.88,14.71,4.61,20.2,7.46,5.49,2.86,3.3,4.18-.21,8.78-3.52,4.61-5.27,8.13-11.86,15.37-6.59,7.25-12.74,18.23-14.93,21.96-2.2,3.73-1.32,6.15-1.1,10.32.22,4.17,2.41,8.94,2.41,8.94h5.93s1.31-13.76,2.63-17.28c1.32-3.52,6.81-12.96,12.08-18.23,5.27-5.27,17.57-19.54,17.57-19.54,0,0,.44,3.51-.22,9.67-.66,6.14-.88,33.82-.66,35.79.22,1.98,4.07,9.1,4.07,9.1h13.17s-2.1-4.05-3.85-5.37c-1.75-1.32-3.95-2.86-4.83-4.61-.88-1.76-.22-4.39-.44-7.25-.22-2.86.88-7.25,1.98-19.1,1.09-11.86,1.75-29.65,3.51-32.28,1.75-2.64,4.17-6.59,10.54-18.23,4.68-8.57,5.34-14.98,5.86-19.28l-18.37-18.57Z"/><path class="cls-4" d="M408.49,334.55c-5.46-5.45-25.87-25.81-31.37-30.93-6.37-5.93-9.88-10.1-9.88-10.1,0,0-.45-13.4-.45-17.35s-.19-5.36-.85-5.8c-.66-.44-1.56-2.98-2.22-7.37-.66-4.39-.66-12.52-.66-14.49s.34-5.44,2.85-6.14c0,0,9.02,1.71,11.64,9.22,1.91,5.49.88,9.66.88,9.66l.44,14.49v14.27l34.59,39.78-4.98,4.77Z"/><path class="cls-4" d="M410.82,337.63l3.85,6.83,15.59-.22s19.76,6.59,59.73,14.71c34.88,7.09,80.87,13.42,91.66,14.87,0,0,.61-.18,1.08-.39.47-.21.56-.37.86-.71.3-.35.06-.46-.13-.71-.2-.26-.24-.43-.75-.8-.52-.37-.71-.15-1.62-.19-.91-.05-.82.17-1.6.19-.77.02-.86-.06-1.27-.52-.41-.45-.45-.84-.52-1.21-.06-.37.2-.66.2-.66-2.97-.18-14.8-1.48-74.08-10.97-59.13-9.47-80.48-20.53-86.38-24.33l-1.93.34-1.14.11-.79.46-2.77,3.19Z"/><path class="cls-4" d="M363.7,307.74s-2.76,11.72-17,37.22c-14.24,25.5-16.54,27.57-25.5,39.29-8.96,11.72-23.3,23-23.67,24.82l-.23,1.14c.69.69,5.97,11.26,6.43,12.18.46.92-2.76,5.74-7.12,11.49-4.37,5.74-6.89,12.4-8.5,14.7-1.61,2.3-5.29,3.91-7.81,4.13-2.53.23-3.68-.92-6.2,0-2.53.92-3.91,1.61-4.14,2.53-.23.92-.69,3.9,1.61,7.12,2.3,3.22,3.45,4.37,6.2,11.26,2.76,6.89,3.45,8.73,3.45,8.73,0,0,8.96,4.82,11.26,6.2,2.3,1.38,11.26,1.61,11.26,1.61l.46-5.28-8.5-7.58-.23-4.14s-7.12-1.61-10.57-3.22c-3.45-1.61-5.28-4.82-4.82-5.97.46-1.15,1.15-3.22,1.84-2.76.69.46,10.57,5.28,10.57,5.28l-.69-8.04s12.41-13.79,15.16-16.09c2.76-2.29,5.29-5.74,5.29-5.74,0,0,7.12,5.51,8.5,5.74,1.38.23,2.53-.69,2.53-.69,0,0,12.18-15.85,23.66-35.61,11.49-19.76,19.3-36.07,21.6-40.67,2.3-4.59,2.3-6.43,2.3-6.43l1.38.23s5.74,28.72,12.41,54.23c6.66,25.5,6.2,33.31,7.58,35.61,1.38,2.3,8.27,4.6,10.34,5.05,2.07.46,3.22.23,3.22.23,0,0,4.37,11.03,7.58,14.25,3.22,3.22,4.37,6.66,3.45,10.34-.92,3.68-3.9,8.96-4.36,10.11-.46,1.15-1.38,2.52-.69,3.22.69.69,3.44,2.76,10.8,3.44,7.35.69,21.14,2.07,21.14,2.07l14.93-13.1.46-3.68h-6.2s-3.45,1.84-5.74,1.84-8.04-1.61-8.04-1.61l-9.88,9.19-8.04-4.13,10.57-6.66s-7.81-7.12-10.11-15.17c-2.3-8.04-3.45-14.93-3.45-14.93,0,0,3.45-3.91,5.29-5.51,1.7-1.49,2.76-2.53,2.76-2.53,0,0-14.71-29.63-23.89-60.89-9.19-31.25-15.39-52.85-16.77-58.36-1.38-5.51-2.53-12.41-2.53-12.41l-19.3-2.07Z"/><path class="cls-4" d="M605.3,354.81l1.75,23.27s2.22-2.54,2.85-2.54,8.7.95,12.03-1.11c3.32-2.06,5.53-5.26,5.86-6.17.79-2.22.95-9.03.95-9.03,0,0-4.75,1.11-7.92,0-3.16-1.11-7.59-2.05-9.49-3-1.91-.95-3.17-1.74-4.12-1.9-.95-.16-1.58.32-1.58.32l-.32.16Z"/><rect class="cls-1" x="549.72" y="191.4" width="365.76" height="77.57"/><rect class="cls-1" x="138.08" y="516.59" width="227.86" height="67.87"/><rect class="cls-1" x="689.5" y="516.21" width="202.54" height="71.1"/></g></svg>